<svg width="854" height="32" viewBox="0 0 854 32" fill="none" xmlns="http://www.w3.org/2000/svg">
<path d="M853.468 9.45189C853.008 8.60391 852.278 7.90461 851.268 7.36069C850.354 6.87758 849.298 6.51272 848.109 6.26947C846.92 6.02961 845.771 5.95189 844.674 6.04311C843.577 6.13432 842.546 6.39447 841.581 6.81677C840.622 7.24245 839.861 7.84718 839.315 8.63435C839.04 9.12083 839.269 9.51273 840.004 9.81678C840.739 10.1208 841.239 10.0296 841.515 9.54311C841.882 8.99581 842.434 8.55661 843.163 8.22215C843.898 7.89107 844.674 7.69174 845.501 7.63093C846.328 7.57012 847.149 7.64784 847.976 7.8573C848.803 8.07014 849.487 8.4181 850.038 8.90459C850.773 9.45189 851.207 10.0735 851.344 10.7694C851.482 11.4688 851.39 12.1208 851.069 12.7255C850.747 13.3303 850.201 13.8168 849.42 14.1816C848.645 14.5465 847.614 14.6986 846.328 14.6378C844.679 14.5769 843.051 14.3506 841.449 13.9553C839.846 13.56 838.244 13.1377 836.641 12.6817C835.039 12.2256 833.456 11.7424 831.9 11.2255C830.343 10.712 828.787 10.2695 827.225 9.908C825.668 9.54314 823.882 9.16472 821.866 8.76945C819.85 8.37418 817.926 8.14782 816.094 8.08701C815.543 7.17822 814.925 6.32689 814.242 5.53973C813.553 4.75256 812.71 4.05322 811.7 3.44848C808.587 1.4451 805.035 0.326864 801.049 0.0836202C797.063 -0.159624 793.011 0.127559 788.887 0.948508C784.763 1.76608 780.777 2.90459 776.929 4.36067C773.081 5.81676 769.784 7.18163 767.033 8.45528C765.201 9.30663 763.349 10.2154 761.465 11.185C759.587 12.1546 757.735 13.1276 755.897 14.0972H723.189C722.459 13.7323 721.698 13.354 720.923 12.9587C720.147 12.5634 719.392 12.185 718.657 11.8201C714.809 10.06 710.823 8.40799 706.699 6.86069C702.575 5.31339 698.227 4.08702 693.644 3.17486C687.872 1.96201 681.916 1.3708 675.776 1.4012C669.642 1.43161 663.865 2.4181 658.46 4.35729C655.439 5.44851 652.504 6.90458 649.667 8.72553C646.829 10.5431 644.992 12.6073 644.17 14.9113V14.0938H209.494C208.555 12.1174 206.835 10.3269 204.339 8.72553C201.496 6.90458 198.567 5.45189 195.546 4.35729C190.141 2.41472 184.364 1.43161 178.229 1.4012C172.089 1.3708 166.134 1.96201 160.361 3.17486C155.778 4.08364 151.43 5.31339 147.307 6.86069C143.183 8.40799 139.197 10.06 135.349 11.8201C134.614 12.185 133.859 12.5634 133.083 12.9587C132.302 13.354 131.547 13.7323 130.817 14.0972H98.1081C96.2759 13.1276 94.4182 12.158 92.5401 11.185C90.662 10.2154 88.8043 9.30663 86.9721 8.45528C84.2264 7.18163 80.9244 5.81676 77.0763 4.36067C73.2282 2.90459 69.2423 1.76946 65.1186 0.948508C60.9949 0.127559 56.9427 -0.159624 52.9568 0.0836202C48.9709 0.326864 45.4188 1.44848 42.3056 3.44848C41.2951 4.05659 40.4479 4.75256 39.7641 5.53973C39.0751 6.32689 38.4575 7.17822 37.9063 8.08701C36.0742 8.14782 34.1501 8.37418 32.1342 8.76945C30.1183 9.16472 28.332 9.54314 26.7755 9.908C25.2189 10.2729 23.6623 10.712 22.1006 11.2255C20.544 11.7424 18.9619 12.2256 17.3594 12.6817C15.7568 13.1377 14.1543 13.56 12.5518 13.9553C10.9493 14.3506 9.32123 14.5769 7.67278 14.6378C6.38668 14.6986 5.35576 14.5465 4.58001 14.1816C3.79917 13.8168 3.24798 13.3336 2.93156 12.7255C2.61004 12.1208 2.51817 11.4688 2.65597 10.7694C2.79376 10.0735 3.22757 9.45189 3.96249 8.90459C4.51367 8.42148 5.19755 8.07014 6.02433 7.8573C6.8511 7.64446 7.67278 7.57012 8.49956 7.63093C9.32634 7.69174 10.1021 7.89107 10.837 8.22215C11.5719 8.55661 12.118 8.99581 12.4855 9.54311C12.761 10.0296 13.2612 10.1208 13.9961 9.81678C14.7259 9.51273 14.9556 9.12083 14.6851 8.63435C14.1339 7.84718 13.3786 7.23907 12.4191 6.81677C11.4545 6.39447 10.4236 6.13432 9.32634 6.04311C8.22397 5.95189 7.08077 6.02961 5.89164 6.26947C4.6974 6.51272 3.64607 6.87758 2.72742 7.36069C1.71692 7.90798 0.987098 8.60391 0.527776 9.45189C0.0684545 10.3032 -0.0897498 11.1681 0.0480467 12.0465C0.185843 12.9249 0.619646 13.7458 1.35456 14.5026C2.08437 15.2627 3.14081 15.7628 4.51367 16.0026C6.25399 16.3675 8.08617 16.4114 10.0102 16.1411C11.9343 15.8675 13.8583 15.4756 15.7824 14.9587C17.7064 14.4418 19.5845 13.881 21.4167 13.2763C23.2489 12.6715 24.9433 12.1546 26.4999 11.7289C27.7809 11.4249 29.4089 11.033 31.3789 10.5465C33.3489 10.0634 35.2933 9.75934 37.2225 9.63772C36.6713 11.2154 36.5335 12.8066 36.8091 14.4147C37.0847 16.0228 37.8604 17.462 39.1465 18.7357C40.0601 19.5871 41.1879 20.2695 42.5149 20.783C43.8418 21.2999 45.2657 21.6175 46.7764 21.7391C48.287 21.8608 49.7773 21.7999 51.242 21.5567C52.7067 21.3168 54.0796 20.8911 55.3657 20.283C56.4629 19.7357 57.3816 18.979 58.1165 18.0094C59.3056 22.0128 61.985 25.2425 66.1546 27.6986C70.3242 30.1547 75.6575 31.5668 82.1645 31.9283C85.9208 32.1108 89.677 31.9452 93.4332 31.4283C97.1895 30.9148 100.762 30.1411 104.156 29.1073C106.442 28.4418 108.555 27.7121 110.474 26.9215C112.398 26.1344 114.276 25.283 116.108 24.3742C117.114 24.6783 118.191 24.9824 119.339 25.2831C120.482 25.5871 121.651 25.8607 122.845 26.1006C126.05 26.7695 129.235 27.131 132.399 27.1918C135.558 27.2526 138.697 27.1006 141.815 26.7357C144.928 26.3708 148.001 25.827 151.022 25.0972C154.043 24.3675 157.024 23.5195 159.953 22.5499C163.158 21.4587 166.389 20.3067 169.645 19.0938C172.896 17.881 176.218 16.7898 179.607 15.8168H185.828H207.917H644.155V15.4925C644.216 15.5601 644.298 15.6141 644.43 15.6344C644.798 15.6952 645.349 15.756 646.079 15.8168H674.393C677.782 16.7864 681.105 17.881 684.356 19.0938C687.612 20.3067 690.837 21.4587 694.047 22.5499C696.982 23.5229 699.957 24.3709 702.978 25.0972C706 25.8236 709.072 26.3708 712.185 26.7357C715.304 27.1006 718.437 27.2526 721.601 27.1918C724.761 27.131 727.945 26.7695 731.155 26.1006C732.35 25.8574 733.513 25.5871 734.661 25.2831C735.81 24.979 736.887 24.6783 737.892 24.3742C739.724 25.283 741.602 26.1344 743.526 26.9215C745.45 27.7121 747.558 28.4384 749.85 29.1073C753.238 30.1377 756.816 30.9114 760.572 31.4283C764.328 31.9452 768.085 32.1108 771.841 31.9283C778.348 31.5635 783.686 30.1547 787.851 27.6986C792.02 25.2425 794.7 22.0128 795.889 18.0094C796.624 18.979 797.537 19.7391 798.64 20.283C799.926 20.8911 801.299 21.3168 802.764 21.5567C804.228 21.7999 805.719 21.8608 807.229 21.7391C808.74 21.6175 810.164 21.2999 811.491 20.783C812.818 20.2695 813.945 19.5871 814.859 18.7357C816.145 17.462 816.921 16.0228 817.196 14.4147C817.472 12.81 817.334 11.2154 816.783 9.63772C818.707 9.75934 820.657 10.0634 822.621 10.5465C824.591 11.033 826.22 11.4282 827.501 11.7289C829.062 12.1546 830.752 12.6715 832.584 13.2763C834.416 13.8844 836.294 14.4452 838.218 14.9587C840.142 15.4722 842.066 15.8675 843.99 16.1411C845.914 16.4148 847.752 16.3675 849.487 16.0026C850.86 15.7628 851.916 15.2593 852.651 14.5026C853.386 13.7458 853.82 12.9249 853.957 12.0465C854.085 11.1681 853.927 10.3032 853.468 9.45189ZM83.9457 9.36067C84.0375 9.36067 84.0835 9.37756 84.0835 9.40459C84.0835 9.43499 84.1294 9.45189 84.2213 9.45189C85.7779 10.1782 87.314 10.9384 88.8247 11.7255C90.3353 12.5127 91.8715 13.3032 93.4281 14.0904H71.1612C71.1612 12.5735 71.6614 11.2694 72.6719 10.1782C73.9529 8.78294 75.6983 8.08701 77.8928 8.08701C80.0976 8.08701 82.1084 8.51269 83.9457 9.36067ZM57.0039 15.4587C56.6365 16.5499 55.9271 17.4756 54.8757 18.2323C53.8193 18.9925 52.5842 19.5229 51.1654 19.8235C49.7466 20.1276 48.2564 20.1884 46.6998 20.006C45.1432 19.8235 43.7244 19.3708 42.4383 18.6411C40.6061 17.6107 39.5548 16.2627 39.2792 14.5904C39.0036 12.9215 39.2333 11.2999 39.9682 9.72218C42.2597 9.90461 43.5866 10.7222 43.9541 12.1783C43.8622 12.3607 43.8163 12.6343 43.8163 12.9958C43.8163 13.3607 43.9541 13.5736 44.2297 13.6344C44.592 13.9384 45.0769 14.0431 45.674 13.9519C46.2711 13.8607 46.5671 13.6039 46.5671 13.1783C46.5671 12.6918 46.5212 12.3303 46.4293 12.0871C46.7049 11.0566 47.3429 10.1749 48.3534 9.44851C49.3588 8.72215 50.7776 8.4789 52.6149 8.72215C53.7121 8.84377 54.6052 9.14784 55.2942 9.63095C55.9832 10.1174 56.4834 10.6917 56.8049 11.3606C57.1264 12.0296 57.2846 12.7256 57.2846 13.4519C57.2795 14.185 57.1877 14.8506 57.0039 15.4587ZM59.275 10.7255C58.6779 9.63433 57.6929 8.75593 56.32 8.08701C54.0285 6.99579 51.8748 6.67823 49.8589 7.13094C47.843 7.58702 46.2864 8.45191 45.184 9.72556C44.1735 8.87758 42.7088 8.36066 40.7848 8.17823C41.2441 7.39106 41.8157 6.66135 42.5047 5.9958C43.1937 5.33026 43.8979 4.75256 44.6329 4.26945C46.1894 3.23904 47.9757 2.53969 49.9916 2.17482C52.0075 1.80996 54.0898 1.67484 56.2435 1.76605C58.3972 1.85727 60.5254 2.08363 62.6332 2.44849C64.7409 2.81336 66.7109 3.20863 68.5431 3.63093C71.6563 4.48228 74.5908 5.42147 77.3417 6.45188C75.2339 6.63431 73.4476 7.1816 71.9829 8.09039C70.6968 8.87755 69.8037 9.80322 69.3035 10.864C68.7983 11.9248 68.5941 13.0026 68.686 14.0938H59.8925C60.0763 12.9418 59.867 11.8201 59.275 10.7255ZM111.638 24.5567C110.949 24.8607 110.239 25.1614 109.509 25.4654C106.299 26.7391 102.706 27.8304 98.7205 28.7391C94.7346 29.6479 90.7232 30.1648 86.6965 30.2864C82.6647 30.408 78.7451 30.0736 74.9481 29.2864C71.1459 28.4992 67.8694 27.0432 65.1186 24.9182C63.562 23.6445 62.4137 22.2053 61.6839 20.5972C60.949 18.9925 60.4948 17.3979 60.311 15.8202H68.9718C69.0637 15.9418 69.13 16.0634 69.1759 16.185C69.2219 16.3066 69.2882 16.4283 69.3801 16.5499C69.9313 17.7019 70.8448 18.6107 72.1309 19.2797C73.4119 19.9486 74.8103 20.3405 76.3209 20.4621C77.8316 20.5837 79.3423 20.4317 80.858 20.006C82.3687 19.5837 83.6293 18.8844 84.6398 17.9148C84.8235 17.6749 84.8439 17.4586 84.7061 17.2796C84.5683 17.0972 84.3642 16.9486 84.0886 16.8236C83.813 16.7019 83.5119 16.658 83.1954 16.685C82.8739 16.7154 82.6239 16.854 82.4401 17.0938C81.7052 17.8202 80.8121 18.3236 79.7608 18.5938C78.7043 18.8675 77.6734 18.9418 76.668 18.8202C75.6575 18.6985 74.698 18.4114 73.7845 17.9553C72.8658 17.4992 72.1819 16.8809 71.7226 16.0904C71.7226 15.9688 71.6767 15.8776 71.5848 15.8168H96.7352C99.3942 17.2121 102.12 18.5905 104.911 19.9553C107.703 21.3202 110.658 22.5195 113.776 23.5499C113.031 23.9181 112.327 24.2526 111.638 24.5567ZM108.479 19.3709C106.049 18.2188 103.645 17.0364 101.262 15.8236H127.785C125.861 16.9148 123.937 18.0364 122.013 19.1884C120.089 20.3405 118.119 21.435 116.103 22.4655C113.444 21.5533 110.903 20.5229 108.479 19.3709ZM164.618 18.9148C161.683 20.006 158.728 21.006 155.753 21.9181C152.772 22.8269 149.751 23.6174 146.684 24.283C143.612 24.9519 140.478 25.3742 137.268 25.5566C133.787 25.7391 130.485 25.6006 127.372 25.1479C124.254 24.6918 121.278 24.0431 118.441 23.1918C121.462 21.5533 124.488 19.8269 127.51 18.006C128.24 17.6411 128.929 17.2796 129.572 16.9148C130.21 16.5499 130.853 16.1884 131.496 15.8236H173.416C170.482 16.7932 167.552 17.8235 164.618 18.9148ZM178.775 14.0938H134.798C137.911 12.5161 141.208 11.0465 144.694 9.68164C148.174 8.31677 151.747 7.13433 155.411 6.13433C159.075 5.13432 162.832 4.36068 166.68 3.81338C170.528 3.26608 174.468 3.0262 178.5 3.08363C183.45 3.20525 188.278 3.96539 192.999 5.35728C197.715 6.75256 201.588 8.81335 204.609 11.5431L205.436 12.3607C200.669 11.3911 196.112 11.1344 191.764 11.5871C187.41 12.0465 183.083 12.881 178.775 14.0938ZM186.609 14.0938C189.63 13.5465 192.703 13.2458 195.816 13.185C198.929 13.1242 202.139 13.4283 205.436 14.0938H186.609ZM765.166 11.7289C766.676 10.9418 768.212 10.1816 769.769 9.45527C769.861 9.45527 769.907 9.44175 769.907 9.40797C769.907 9.37756 769.953 9.36405 770.045 9.36405C771.877 8.51607 773.893 8.09039 776.092 8.09039C778.292 8.09039 780.032 8.78969 781.313 10.1816C782.324 11.2728 782.824 12.5769 782.824 14.0938H760.557C762.119 13.3066 763.65 12.5161 765.166 11.7289ZM648.549 14.0938C651.846 13.4283 655.056 13.1242 658.169 13.185C661.282 13.2458 664.355 13.5499 667.376 14.0938H648.549ZM662.221 11.5904C657.868 11.1377 653.311 11.3945 648.549 12.3641L649.376 11.5465C652.397 8.81674 656.271 6.75594 660.986 5.36066C665.707 3.96539 670.54 3.20864 675.486 3.08701C679.517 3.0262 683.457 3.26946 687.305 3.81676C691.153 4.36406 694.91 5.13433 698.574 6.13771C702.238 7.13771 705.811 8.32015 709.292 9.68502C712.777 11.0499 716.074 12.5195 719.187 14.0972H675.21C670.908 12.881 666.575 12.0465 662.221 11.5904ZM726.613 25.1479C723.5 25.604 720.203 25.7391 716.717 25.5566C713.512 25.3742 710.374 24.9519 707.301 24.283C704.234 23.6141 701.208 22.8269 698.232 21.9181C695.257 21.0093 692.302 20.006 689.367 18.9148C686.438 17.8235 683.503 16.7932 680.569 15.8202H722.489C723.132 16.1851 723.776 16.5499 724.413 16.9114C725.057 17.2763 725.745 17.6411 726.475 18.0026C729.502 19.8236 732.523 21.5499 735.544 23.1884C732.707 24.0431 729.726 24.6918 726.613 25.1479ZM731.972 19.1884C730.048 18.0364 728.124 16.9148 726.2 15.8236H752.723C750.34 17.0364 747.936 18.2188 745.507 19.3709C743.082 20.5229 740.536 21.5533 737.877 22.4655C735.866 21.4317 733.896 20.3405 731.972 19.1884ZM792.306 20.5972C791.571 22.2053 790.428 23.6445 788.872 24.9182C786.126 27.0432 782.849 28.4959 779.047 29.2864C775.245 30.0736 771.331 30.4114 767.299 30.2864C763.267 30.1648 759.261 29.6479 755.275 28.7391C751.289 27.8304 747.696 26.7391 744.486 25.4654C743.756 25.1614 743.042 24.8607 742.358 24.5567C741.669 24.2526 740.959 23.9182 740.229 23.5567C743.348 22.5263 746.303 21.327 749.094 19.9621C751.891 18.5972 754.616 17.2188 757.27 15.8236H782.421C782.329 15.8844 782.283 15.9755 782.283 16.0972C781.824 16.8877 781.14 17.506 780.221 17.962C779.307 18.4181 778.343 18.7053 777.332 18.8269C776.327 18.9485 775.296 18.8709 774.24 18.6006C773.188 18.3269 772.295 17.827 771.56 17.1006C771.377 16.8607 771.127 16.7222 770.805 16.6918C770.483 16.6614 770.187 16.7087 769.912 16.8303C769.636 16.9519 769.432 17.1039 769.294 17.2864C769.156 17.4688 769.182 17.6817 769.361 17.9215C770.371 18.8945 771.627 19.5904 773.142 20.0127C774.653 20.4384 776.164 20.5905 777.674 20.4689C779.185 20.3472 780.583 19.9553 781.864 19.2864C783.151 18.6175 784.064 17.7087 784.615 16.5567C784.707 16.435 784.773 16.3134 784.819 16.1918C784.865 16.0701 784.937 15.952 785.024 15.827H793.684C793.501 17.3979 793.041 18.9925 792.306 20.5972ZM794.715 10.7255C794.118 11.8168 793.914 12.9418 794.098 14.0904H785.304C785.396 12.9992 785.192 11.9215 784.687 10.8607C784.187 9.79984 783.293 8.87417 782.007 8.08701C780.543 7.17822 778.756 6.63093 776.649 6.4485C779.399 5.41809 782.334 4.4789 785.447 3.62755C787.279 3.20525 789.249 2.80998 791.357 2.44511C793.465 2.08025 795.598 1.85389 797.747 1.76267C799.9 1.67145 801.988 1.80662 803.999 2.17148C806.015 2.53635 807.801 3.23228 809.357 4.26607C810.092 4.75256 810.802 5.32688 811.486 5.99242C812.175 6.66134 812.746 7.38768 813.205 8.17485C811.281 8.35728 809.817 8.87082 808.806 9.72218C807.704 8.44852 806.147 7.58364 804.131 7.12756C802.115 6.67147 799.962 6.99245 797.67 8.08367C796.292 8.75597 795.312 9.63433 794.715 10.7255ZM814.711 14.5938C814.435 16.2627 813.384 17.6107 811.552 18.6445C810.271 19.3708 808.852 19.8269 807.29 20.0094C805.734 20.1918 804.244 20.131 802.825 19.8269C801.406 19.5229 800.166 18.9925 799.115 18.2357C798.063 17.4789 797.349 16.5533 796.986 15.4621C796.803 14.8573 796.711 14.1884 796.711 13.4621C796.711 12.7357 796.874 12.0363 797.19 11.3708C797.512 10.7052 798.017 10.1276 798.701 9.6411C799.39 9.15799 800.283 8.85391 801.38 8.73229C803.213 8.48905 804.637 8.7323 805.642 9.45865C806.653 10.185 807.29 11.0668 807.566 12.0972C807.474 12.3404 807.428 12.7053 807.428 13.1884C807.428 13.6141 807.724 13.8709 808.321 13.9621C808.918 14.0533 809.398 13.9485 809.766 13.6444C810.041 13.5836 810.179 13.3708 810.179 13.006C810.179 12.6411 810.133 12.3675 810.041 12.1884C810.409 10.7323 811.741 9.91475 814.027 9.73232C814.757 11.3033 814.987 12.9249 814.711 14.5938Z" fill="#92908A"/>
</svg>
