<svg width="24" height="24" viewBox="0 0 24 24" fill="none" xmlns="http://www.w3.org/2000/svg">
<path d="M2 16.92V19.92C1.99887 20.1985 2.05592 20.4741 2.16749 20.7293C2.27906 20.9845 2.4427 21.2136 2.64792 21.4018C2.85314 21.5901 3.09542 21.7335 3.35925 21.8227C3.62307 21.9119 3.90263 21.945 4.18 21.92C7.25716 21.5856 10.213 20.5341 12.81 18.85C15.2262 17.3146 17.2747 15.2661 18.81 12.85C20.5 10.2412 21.5518 7.27097 21.88 4.17997C21.905 3.90344 21.8721 3.62474 21.7835 3.3616C21.6949 3.09846 21.5524 2.85666 21.3652 2.6516C21.178 2.44653 20.9502 2.28268 20.6962 2.1705C20.4422 2.05831 20.1677 2.00024 19.89 1.99997H16.89C16.4047 1.9952 15.9342 2.16705 15.5662 2.48351C15.1983 2.79996 14.9579 3.23942 14.89 3.71997C14.7634 4.68004 14.5285 5.6227 14.19 6.52997C14.0555 6.8879 14.0263 7.27689 14.1061 7.65086C14.1858 8.02482 14.3711 8.36809 14.64 8.63998L15.91 9.90997C14.4864 12.4135 12.4135 14.4864 9.91 15.91L8.64 14.64C8.36811 14.3711 8.02484 14.1858 7.65088 14.1061C7.27691 14.0263 6.88792 14.0554 6.53 14.19C5.62273 14.5285 4.68006 14.7634 3.72 14.89C3.23423 14.9585 2.7906 15.2032 2.47346 15.5775C2.15633 15.9518 1.98783 16.4296 2 16.92Z" stroke="white" stroke-width="2" stroke-linecap="round" stroke-linejoin="round"/>
</svg>
